<svg width="156" height="214" viewBox="0 0 156 214" fill="none" xmlns="http://www.w3.org/2000/svg">
<path d="M120.435 97.4327C120.435 120.805 101.399 139.821 78 139.821C54.6015 139.821 35.5646 120.805 35.5646 97.4327C35.5646 74.0602 54.6015 55.0445 78 55.0445C101.399 55.0445 120.435 74.0602 120.435 97.4327ZM50.9858 145.28C25.5075 156.135 9.04255 181.034 9.04255 208.701C9.04255 211.63 11.4176 214 14.347 214M141.653 214C144.582 214 146.957 211.63 146.957 208.701C146.957 181.034 130.493 156.135 105.014 145.28C103.621 144.679 102.043 144.711 100.684 145.357C86.3192 152.074 69.6808 152.074 55.3164 145.357C53.9514 144.711 52.3741 144.679 50.9858 145.28C25.5075 156.135 9.04255 181.034 9.04255 208.701C9.04255 211.63 11.4176 214 14.347 214H141.653Z" fill="#F2F1FF"/>
<path d="M23.9936 0L29.6577 17.413H47.9872L33.1583 28.1748L38.8225 45.5877L23.9936 34.8259L9.16474 45.5877L14.8289 28.1748L0 17.413H18.3295L23.9936 0Z" fill="#F2F1FF"/>
<path d="M78 0L83.6641 17.413H101.994L87.1647 28.1748L92.8289 45.5877L78 34.8259L63.1711 45.5877L68.8353 28.1748L54.0064 17.413H72.3359L78 0Z" fill="#F2F1FF"/>
<path d="M132.006 0L137.671 17.413H156L141.171 28.1748L146.835 45.5877L132.006 34.8259L117.178 45.5877L122.842 28.1748L108.013 17.413H126.342L132.006 0Z" fill="#F2F1FF"/>
</svg>
