<svg width="219" height="219" viewBox="0 0 219 219" fill="none" xmlns="http://www.w3.org/2000/svg">
<path d="M213.93 94.8639L198.61 77.5173C195.327 74.2649 193.139 67.7599 193.139 63.4233V46.0767C193.139 34.151 183.29 25.4777 172.347 25.4777H153.745C149.368 25.4777 142.802 23.3094 139.519 20.0569L122.011 4.87871C114.351 -1.62624 102.314 -1.62624 94.6543 4.87871L78.2403 20.0569C74.9575 23.3094 68.3918 25.4777 64.0148 25.4777H45.4122C33.3752 25.4777 24.6211 35.2351 24.6211 46.0767V64.5074C24.6211 68.8441 22.4325 75.349 19.1497 78.6015L4.92421 95.948C-1.6414 103.537 -1.6414 115.463 4.92421 123.052L19.1497 140.399C22.4325 143.651 24.6211 150.156 24.6211 154.493V172.923C24.6211 184.849 34.4695 193.522 45.4122 193.522H64.0148C68.3918 193.522 74.9575 195.691 78.2403 198.943L95.7486 214.121C103.408 220.626 115.445 220.626 123.105 214.121L140.614 198.943C143.896 195.691 150.462 193.522 154.839 193.522H173.442C185.479 193.522 194.233 183.765 194.233 172.923V154.493C194.233 150.156 196.421 143.651 199.704 140.399L215.024 123.052C220.495 115.463 220.495 102.453 213.93 94.8639ZM160.31 108.958L147.179 147.988C146.085 154.493 138.425 159.913 131.859 159.913H111.068C107.786 159.913 102.314 158.829 100.126 156.661L83.7116 144.735C83.7116 151.24 80.4288 154.493 72.7689 154.493H68.3918C60.7319 154.493 57.4491 151.24 57.4491 143.651V91.6114C57.4491 84.0223 60.7319 80.7698 68.3918 80.7698H73.8632C81.5231 80.7698 84.8059 84.0223 84.8059 91.6114V95.948L105.597 64.5074C107.786 61.2549 113.257 59.0866 117.634 60.1708C123.105 62.3391 126.388 67.7599 125.294 72.0965L123.105 89.4431C123.105 90.5272 123.105 92.6955 124.2 93.7797C125.294 94.8639 126.388 94.8639 127.482 94.8639H149.368C153.745 94.8639 157.028 97.0322 159.216 99.2005C161.405 101.369 161.405 105.705 160.31 108.958Z" fill="#F2F1FF"/>
</svg>
