<svg width="189" height="189" viewBox="0 0 189 189" fill="none" xmlns="http://www.w3.org/2000/svg">
<path fill-rule="evenodd" clip-rule="evenodd" d="M94.5 0C75.8097 0 57.5391 5.54233 41.9986 15.9261C26.4582 26.3099 14.3459 41.0688 7.19343 58.3364C0.0409453 75.604 -1.83047 94.6048 1.81583 112.936C5.46214 131.267 14.4624 148.105 27.6784 161.322C40.8945 174.538 57.7328 183.538 76.064 187.184C94.3952 190.83 113.396 188.959 130.664 181.807C147.931 174.654 162.69 162.542 173.074 147.001C183.458 131.461 189 113.19 189 94.5C189 82.0901 186.556 69.8017 181.807 58.3364C177.058 46.8711 170.097 36.4535 161.322 27.6784C152.546 18.9033 142.129 11.9425 130.664 7.19338C119.198 2.44431 106.91 0 94.5 0ZM127.859 127.858C127.202 128.518 126.421 129.041 125.562 129.398C124.702 129.755 123.781 129.939 122.85 129.939C121.919 129.939 120.998 129.755 120.138 129.398C119.279 129.041 118.498 128.518 117.842 127.858L89.4915 99.5085C88.8319 98.8519 88.3087 98.0714 87.9519 97.2118C87.5951 96.3523 87.4118 95.4306 87.4125 94.5V47.25C87.4125 45.3703 88.1593 43.5675 89.4884 42.2384C90.8176 40.9092 92.6203 40.1625 94.5 40.1625C96.3797 40.1625 98.1825 40.9092 99.5116 42.2384C100.841 43.5675 101.588 45.3703 101.588 47.25V91.561L127.859 117.841C128.517 118.499 129.039 119.28 129.395 120.139C129.752 120.998 129.935 121.92 129.935 122.85C129.935 123.78 129.752 124.702 129.395 125.561C129.039 126.42 128.517 127.201 127.859 127.858Z" fill="#F2F1FF"/>
</svg>
