<svg id="Layer_1" height="512" viewBox="0 0 512 512" width="512" xmlns="http://www.w3.org/2000/svg" data-name="Layer 1"><path d="m256 0c141.385 0 256 114.615 256 256s-114.615 256-256 256-256-114.615-256-256 114.615-256 256-256zm-122.509 347.405h245.022a13.335 13.335 0 0 0 4.009-.621l-91.346-84.53-27.038 20.846a13.324 13.324 0 0 1 -16.281 0l-27.034-20.843-91.35 84.53a13.374 13.374 0 0 0 4.018.621zm65.922-101.663-79.25-61.11v134.447zm56.587 9.973 118.164-91.115h-236.328zm135.84 63.364v-134.447l-79.255 61.11zm-258.349 54.988h245.022a40.034 40.034 0 0 0 39.987-39.991v-156.152a40.036 40.036 0 0 0 -39.986-39.99h-245.023a40.037 40.037 0 0 0 -39.99 39.99v156.152a40.035 40.035 0 0 0 39.99 39.991z" fill-rule="evenodd"/></svg>