<svg id="duotone" enable-background="new 0 0 32 32" viewBox="0 0 32 32" xmlns="http://www.w3.org/2000/svg"><g><path d="m23.25 32c-2.669 0-5.178-1.039-7.064-2.927l-13.26-13.259c-1.887-1.886-2.926-4.395-2.926-7.064s1.039-5.178 2.926-7.065l.515-.514c.754-.755 1.758-1.171 2.826-1.171 1.067 0 2.071.416 2.826 1.171l3.252 3.252c.755.756 1.171 1.76 1.171 2.828s-.416 2.073-1.171 2.828l-.754.755c-.377.377-.585.879-.585 1.412s.208 1.035.585 1.412l6.751 6.751c.754.756 2.068.754 2.824 0l.755-.755c1.558-1.559 4.095-1.559 5.656 0l3.252 3.253c.755.754 1.171 1.758 1.171 2.826 0 1.067-.416 2.071-1.171 2.826l-.514.514c-1.887 1.888-4.396 2.927-7.065 2.927z"/></g><g opacity=".5"><path d="m31 14c-.553 0-1-.447-1-1 0-6.065-4.935-11-11-11-.553 0-1-.447-1-1s.447-1 1-1c7.168 0 13 5.832 13 13 0 .553-.447 1-1 1z"/></g><g opacity=".5"><path d="m27 14c-.553 0-1-.447-1-1 0-3.859-3.141-7-7-7-.553 0-1-.447-1-1s.447-1 1-1c4.963 0 9 4.037 9 9 0 .553-.447 1-1 1z"/></g><g opacity=".5"><path d="m23 14c-.553 0-1-.447-1-1 0-1.654-1.346-3-3-3-.553 0-1-.447-1-1s.447-1 1-1c2.757 0 5 2.243 5 5 0 .553-.447 1-1 1z"/></g></svg>