<svg width="154" height="154" viewBox="0 0 154 154" fill="none" xmlns="http://www.w3.org/2000/svg">
<g opacity="0.4">
<path d="M154 77C154 119.526 119.526 154 77 154C34.4741 154 0 119.526 0 77C0 34.4741 34.4741 0 77 0C119.526 0 154 34.4741 154 77Z" fill="#E8E6FF"/>
<path d="M54.57 107V95.185L76.16 79.035C82.705 74.105 84.575 70.875 84.575 67.305C84.575 63.31 81.09 60.76 76.84 60.76C71.4 60.76 67.32 63.395 62.9 68.07L53.805 59.06C60.01 51.58 67.575 47.585 77.18 47.585C90.27 47.585 99.45 55.575 99.45 66.71C99.45 74.445 96.22 80.48 86.02 87.45L76.84 93.995H100.045V107H54.57Z" fill="#BBB5FD"/>
</g>
</svg>
