<svg width="154" height="154" viewBox="0 0 154 154" fill="none" xmlns="http://www.w3.org/2000/svg">
<g opacity="0.3">
<path d="M154 77C154 119.526 119.526 154 77 154C34.4741 154 0 119.526 0 77C0 34.4741 34.4741 0 77 0C119.526 0 154 34.4741 154 77Z" fill="#E8E6FF"/>
<path d="M77.01 108.105C66.215 108.105 57.97 104.11 52.785 98.33L61.115 88.725C65.365 92.975 70.805 95.1 76.245 95.1C82.11 95.1 85.34 92.635 85.34 89.235C85.34 85.58 82.535 83.71 75.14 83.71L68.255 83.795V71.555H75.14C81.005 71.64 84.15 69.685 84.15 66.285C84.15 62.715 80.665 60.59 75.395 60.59C70.21 60.59 65.96 63.055 62.135 66.795L53.975 57.955C58.99 52.09 66.13 47.585 76.925 47.585C90.695 47.585 98.94 54.385 98.94 63.565C98.94 70.11 94.69 75.04 88.145 76.91C94.605 78.44 100.215 83.03 100.215 90.51C100.215 100.795 91.12 108.105 77.01 108.105Z" fill="#BBB5FD"/>
</g>
</svg>
